<svg width="81" height="81" viewBox="0 0 81 81" fill="none" xmlns="http://www.w3.org/2000/svg">
<path d="M58.4704 27.7723L54.7738 24.0757C53.679 22.98 52.2219 22.3756 50.6713 22.3756C49.1207 22.3756 47.6636 22.9791 46.5688 24.0748L26.017 44.6248C25.9325 44.7093 25.863 44.8046 25.8025 44.9034C25.7847 44.9319 25.7714 44.9603 25.7553 44.9906C25.7126 45.0725 25.677 45.1571 25.6503 45.2443C25.6441 45.263 25.6316 45.2808 25.6272 45.3004L22.0596 58.4971C21.9181 59.0205 22.0667 59.5795 22.4495 59.9622C22.737 60.2489 23.1233 60.4055 23.5194 60.4055C23.6511 60.4055 23.7837 60.3877 23.9137 60.353L36.5435 56.9385C36.644 56.959 36.7473 56.9706 36.8497 56.9706C37.2377 56.9706 37.6241 56.8228 37.9196 56.5273L58.4704 35.9782C59.5662 34.8825 60.1705 33.4245 60.1696 31.8748C60.1705 30.3252 59.567 28.868 58.4704 27.7723ZM36.8506 53.3176L29.2276 45.6947L45.4535 29.4689L53.0773 37.0909L36.8506 53.3176ZM25.6681 56.7445L27.8667 48.6134L33.7993 54.5459L25.6681 56.7445ZM56.3306 33.8384L55.218 34.9511L47.5942 27.329L48.7086 26.2155C49.7571 25.167 51.5854 25.167 52.634 26.2155L56.3306 29.913C56.8549 30.4373 57.1442 31.1352 57.1442 31.8766C57.1442 32.6181 56.8558 33.3141 56.3306 33.8384Z" fill="black"/>
<path d="M45.2536 35.1519L35.7579 44.6476L37.8978 46.7875L47.3935 37.2918L45.2536 35.1519Z" fill="black"/>
<path d="M48.7308 26.0983C49.9226 24.9474 51.8218 24.9805 52.9728 26.1724L56.5582 29.8852C57.7092 31.077 57.676 32.9762 56.4842 34.1272L55.227 35.3413L47.4736 27.3124L48.7308 26.0983Z" fill="#FF9191"/>
</svg>
